<svg xmlns="http://www.w3.org/2000/svg" viewBox="0 0 58 58" fill="#ffc222"><g fill="#008069"><path d="M50.466 43.995l6.483-3.242-17.637-6.498 6.498 17.638 3.242-6.484 6.797 6.797a.997.997 0 001.414 0 .999.999 0 000-1.414l-6.797-6.797zm-7.778-6.364l9.232 3.402-3.887 1.943-1.943 3.888-3.402-9.233z"/><path d="M57.995 6.477a.971.971 0 00-.06-.33c-.003-.007-.008-.012-.01-.019-.011-.027-.029-.049-.042-.075a.986.986 0 00-.148-.22c-.026-.029-.054-.052-.083-.078a.98.98 0 00-.202-.136c-.033-.017-.063-.035-.098-.048A.995.995 0 0057 5.5H1a.985.985 0 00-.351.071c-.035.013-.065.031-.098.048-.073.037-.14.082-.203.136-.029.026-.056.049-.082.078a.963.963 0 00-.149.221c-.013.025-.031.047-.042.074l-.011.018a.996.996 0 00-.06.33c0 .009-.004.016-.004.024v39l.002.009c.001.107.017.214.053.319.004.012.013.022.018.034.013.034.034.063.051.095a.883.883 0 00.225.288c.06.053.126.096.197.133.034.018.066.037.102.051A.99.99 0 001 46.5h35a1 1 0 100-2H3.879c4.548-3.604 14.801-11.781 20.069-16.403l1.421 1.255c1.002.894 2.317 1.341 3.633 1.341 1.313 0 2.626-.446 3.625-1.337L56 8.718V36.5a1 1 0 102 0v-30c0-.008-.004-.015-.005-.023zM2 43.437V8.718l20.437 18.046C16.881 31.617 6.086 40.204 2 43.437zM31.299 27.86c-1.267 1.132-3.331 1.132-4.602-.004l-1.979-1.747c-.005-.007-.007-.015-.012-.021-.022-.025-.053-.035-.077-.058L3.644 7.5h50.713L31.299 27.86z"/></g></svg>