<svg xmlns="http://www.w3.org/2000/svg" viewBox="0 0 60.006 60.006"><g fill="#008069"><path d="M58.543 41.377c-1.898-3.587-8.899-7.69-8.899-7.69-1.584-.903-3.495-1.004-4.399.606 0 0-2.274 2.728-2.853 3.12-2.643 1.791-5.091 1.722-7.562-.75l-5.743-5.743-5.743-5.743c-2.472-2.472-2.541-4.919-.75-7.562.392-.579 3.12-2.853 3.12-2.853 1.609-.904 1.509-2.815.606-4.399 0 0-4.103-7.001-7.69-8.899a3.932 3.932 0 00-4.621.695l-2.537 2.537c-8.045 8.045-4.084 17.129 3.961 25.174l7.353 7.353 7.353 7.353c8.045 8.045 17.129 12.007 25.174 3.961L57.85 46a3.938 3.938 0 00.693-4.623z"/><path d="M45.722 53.943c-1.054 0-2.128-.127-3.223-.38-4.132-.956-8.529-3.742-13.069-8.282L14.725 30.576c-4.54-4.54-7.326-8.938-8.282-13.069-1.147-4.958.307-9.506 4.321-13.519L13.3 1.451a4.907 4.907 0 015.796-.872c3.796 2.008 7.912 8.98 8.085 9.276.734 1.288.964 2.61.652 3.733-.233.844-.767 1.531-1.545 1.994-1.22 1.02-2.646 2.285-2.869 2.595-1.603 2.364-1.414 4.247.631 6.292l11.486 11.486c2.042 2.043 3.924 2.232 6.295.629.307-.222 1.572-1.647 2.592-2.867.463-.778 1.15-1.312 1.994-1.545 1.124-.313 2.444-.082 3.723.646.307.18 7.279 4.296 9.287 8.092a4.908 4.908 0 01-.872 5.796l-2.537 2.536c-3.127 3.128-6.579 4.7-10.296 4.701zM16.784 2.003c-.757 0-1.503.296-2.07.862l-2.536 2.537c-3.542 3.542-4.781 7.354-3.787 11.654.87 3.762 3.477 7.834 7.748 12.105l14.705 14.705c4.271 4.271 8.344 6.878 12.105 7.748 4.297.988 8.111-.244 11.654-3.787l2.537-2.536a2.92 2.92 0 00.519-3.446c-1.448-2.737-6.642-6.194-8.521-7.296-.777-.442-1.6-.614-2.187-.45-.36.1-.633.323-.835.683l-.104.151c-.712.853-2.434 2.883-3.062 3.308-3.147 2.133-6.119 1.84-8.83-.871L22.636 25.883c-2.711-2.711-3.004-5.682-.871-8.83.425-.628 2.455-2.35 3.308-3.062l.151-.104c.359-.202.583-.475.683-.835.163-.588-.008-1.409-.457-2.197-.033-.057-3.995-6.767-7.289-8.51a2.952 2.952 0 00-1.377-.342z"/></g><path d="M46.066 42.941c-.034 0-.069-.002-.104-.005-6.895-.716-11.409-5.097-11.599-5.283a1 1 0 011.403-1.425c.041.04 4.227 4.077 10.402 4.718a1.001 1.001 0 01-.102 1.995z" fill="#008069"/><path d="M24.064 26.941a.994.994 0 01-.635-.229c-.229-.188-5.638-4.715-6.359-11.668a1.002 1.002 0 011.991-.207c.635 6.12 5.592 10.291 5.642 10.332a1.002 1.002 0 01-.639 1.772z"/><path d="M1 60.005a1.001 1.001 0 01-.958-1.287l2.62-8.733c.179-.596.717-.995 1.338-.995s1.159.399 1.338.994L7 55.525l1.662-5.54c.179-.596.717-.995 1.338-.995s1.159.399 1.338.994L13 55.525l1.662-5.54A1.388 1.388 0 0116 48.99c.621 0 1.159.399 1.338.994L19 55.525l1.662-5.54c.179-.596.717-.995 1.338-.995s1.159.399 1.338.994L25 55.525l1.662-5.54c.179-.596.717-.995 1.338-.995s1.159.399 1.338.994l.904 3.014a6.984 6.984 0 006.73 5.008 7.035 7.035 0 007.027-7.027v-1.973a1 1 0 112 0v1.973c0 4.978-4.05 9.027-9.027 9.027a8.97 8.97 0 01-8.646-6.434L28 52.485l-1.662 5.541c-.179.596-.717.995-1.338.995s-1.159-.399-1.338-.994L22 52.486l-1.662 5.54c-.179.596-.717.995-1.338.995s-1.159-.399-1.338-.994L16 52.486l-1.662 5.54c-.179.596-.717.995-1.338.995s-1.159-.399-1.338-.994L10 52.486l-1.662 5.54c-.179.596-.717.995-1.338.995s-1.159-.399-1.338-.994L4 52.486l-2.042 6.807a1 1 0 01-.958.712z" fill="#008069"/></svg>