<svg version="1.1" id="Capa_1" xmlns="http://www.w3.org/2000/svg" x="0" y="0" viewBox="0 0 612.002 612.002" xml:space="preserve"><path d="M361.456 308.393c.035.457.068.909.068 1.375v19.939c0 10.077-8.162 18.235-18.235 18.235h-74.582c-10.073 0-18.235-8.158-18.235-18.235v-19.939c0-.466.035-.92.07-1.375L0 244.126V536.35c0 8.891 7.204 16.097 16.095 16.097h49.542v13.88a3.495 3.495 0 003.498 3.494h41.666a3.493 3.493 0 003.494-3.494v-13.88h383.407v13.88a3.492 3.492 0 003.494 3.494h41.666a3.494 3.494 0 003.495-3.494v-13.88h49.545c8.888 0 16.099-7.205 16.099-16.097V244.126l-250.545 64.267z"/><path d="M306.001 289.385l306.001-78.491v-74.87c0-8.89-7.211-16.093-16.099-16.093h-178.85V62.814c0-11.394-9.239-20.633-20.635-20.633H215.577c-11.393 0-20.632 9.239-20.632 20.633v57.117H16.095C7.204 119.931 0 127.134 0 136.024v74.872l306.001 78.489zM240.01 87.245h131.977v32.686H240.01V87.245z"/></svg>